<?xml version="1.0" encoding="UTF-8" standalone="no"?><svg xmlns="http://www.w3.org/2000/svg" xmlns:xlink="http://www.w3.org/1999/xlink" contentScriptType="application/ecmascript" contentStyleType="text/css" height="892px" preserveAspectRatio="none" style="width:1140px;height:892px;background:#FFFFFF;" version="1.1" viewBox="0 0 1140 892" width="1140px" zoomAndPan="magnify"><defs/><g><text fill="#000000" font-family="Arial" font-size="12" lengthAdjust="spacing" textLength="464" x="334.75" y="23.1387">SAP-TFI-2026 — Diagrama de Robustez - Reservar Productos (CU-ENT-002)</text><rect fill="#FFFFFF" height="255.6875" style="stroke:#000000;stroke-width:2.0;" width="847.5" x="276" y="308.7188"/><rect fill="#FFFFFF" height="183.7813" style="stroke:none;stroke-width:1.0;" width="847.5" x="276" y="380.625"/><rect fill="#FFFFFF" height="87.875" style="stroke:#000000;stroke-width:2.0;" width="694.5" x="10" y="606.375"/><rect fill="#FFFFFF" height="43.9375" style="stroke:none;stroke-width:1.0;" width="694.5" x="10" y="650.3125"/><line style="stroke:#A80036;stroke-width:1.0;stroke-dasharray:5.0,5.0;" x1="61" x2="61" y1="123.9063" y2="711.25"/><line style="stroke:#A80036;stroke-width:1.0;stroke-dasharray:5.0,5.0;" x1="196" x2="196" y1="123.9063" y2="711.25"/><line style="stroke:#A80036;stroke-width:1.0;stroke-dasharray:5.0,5.0;" x1="337" x2="337" y1="123.9063" y2="711.25"/><line style="stroke:#A80036;stroke-width:1.0;stroke-dasharray:5.0,5.0;" x1="536.5" x2="536.5" y1="123.9063" y2="711.25"/><line style="stroke:#A80036;stroke-width:1.0;stroke-dasharray:5.0,5.0;" x1="650.5" x2="650.5" y1="123.9063" y2="711.25"/><line style="stroke:#A80036;stroke-width:1.0;stroke-dasharray:5.0,5.0;" x1="755.5" x2="755.5" y1="123.9063" y2="711.25"/><line style="stroke:#A80036;stroke-width:1.0;stroke-dasharray:5.0,5.0;" x1="908.5" x2="908.5" y1="123.9063" y2="711.25"/><line style="stroke:#A80036;stroke-width:1.0;stroke-dasharray:5.0,5.0;" x1="1061.5" x2="1061.5" y1="123.9063" y2="711.25"/><text fill="#000000" font-family="Arial" font-size="12" lengthAdjust="spacing" textLength="50" x="33" y="107.1074">Sistema</text><text fill="#000000" font-family="Arial" font-size="12" lengthAdjust="spacing" textLength="76" x="20" y="121.0762">(o Operario)</text><ellipse cx="61" cy="42.9688" fill="#FEFECE" rx="8" ry="8" style="stroke:#A80036;stroke-width:2.0;"/><path d="M61,50.9688 L61,77.9688 M48,58.9688 L74,58.9688 M61,77.9688 L48,92.9688 M61,77.9688 L74,92.9688 " fill="none" style="stroke:#A80036;stroke-width:2.0;"/><text fill="#000000" font-family="Arial" font-size="12" lengthAdjust="spacing" textLength="50" x="33" y="721.3887">Sistema</text><text fill="#000000" font-family="Arial" font-size="12" lengthAdjust="spacing" textLength="76" x="20" y="735.3574">(o Operario)</text><ellipse cx="61" cy="748.1875" fill="#FEFECE" rx="8" ry="8" style="stroke:#A80036;stroke-width:2.0;"/><path d="M61,756.1875 L61,783.1875 M48,764.1875 L74,764.1875 M61,783.1875 L48,798.1875 M61,783.1875 L74,798.1875 " fill="none" style="stroke:#A80036;stroke-width:2.0;"/><text fill="#000000" font-family="Arial" font-size="12" lengthAdjust="spacing" textLength="44" x="171" y="107.1074">Trigger</text><text fill="#000000" font-family="Arial" font-size="12" lengthAdjust="spacing" textLength="154" x="116" y="121.0762">(action_confirm o boton)</text><path d="M175.5,67.9688 L175.5,91.9688 M175.5,79.9688 L192.5,79.9688 " fill="none" style="stroke:#A80036;stroke-width:2.0;"/><ellipse cx="204.5" cy="79.9688" fill="#FEFECE" rx="12" ry="12" style="stroke:#A80036;stroke-width:2.0;"/><text fill="#000000" font-family="Arial" font-size="12" lengthAdjust="spacing" textLength="44" x="171" y="721.3887">Trigger</text><text fill="#000000" font-family="Arial" font-size="12" lengthAdjust="spacing" textLength="154" x="116" y="735.3574">(action_confirm o boton)</text><path d="M175.5,742.1875 L175.5,766.1875 M175.5,754.1875 L192.5,754.1875 " fill="none" style="stroke:#A80036;stroke-width:2.0;"/><ellipse cx="204.5" cy="754.1875" fill="#FEFECE" rx="12" ry="12" style="stroke:#A80036;stroke-width:2.0;"/><text fill="#000000" font-family="Arial" font-size="12" lengthAdjust="spacing" textLength="79" x="294.5" y="107.1074">StockPicking</text><text fill="#000000" font-family="Arial" font-size="12" lengthAdjust="spacing" textLength="96" x="286" y="121.0762">(action_assign)</text><ellipse cx="337" cy="79.9688" fill="#FEFECE" rx="12" ry="12" style="stroke:#A80036;stroke-width:2.0;"/><polygon fill="#A80036" points="333,67.9688,339,62.9688,337,67.9688,339,72.9688,333,67.9688" style="stroke:#A80036;stroke-width:1.0;"/><text fill="#000000" font-family="Arial" font-size="12" lengthAdjust="spacing" textLength="79" x="294.5" y="721.3887">StockPicking</text><text fill="#000000" font-family="Arial" font-size="12" lengthAdjust="spacing" textLength="96" x="286" y="735.3574">(action_assign)</text><ellipse cx="337" cy="754.1875" fill="#FEFECE" rx="12" ry="12" style="stroke:#A80036;stroke-width:2.0;"/><polygon fill="#A80036" points="333,742.1875,339,737.1875,337,742.1875,339,747.1875,333,742.1875" style="stroke:#A80036;stroke-width:1.0;"/><text fill="#000000" font-family="Arial" font-size="12" lengthAdjust="spacing" textLength="113" x="477.5" y="107.1074">Reabastecimiento</text><text fill="#000000" font-family="Arial" font-size="12" lengthAdjust="spacing" textLength="91" x="488.5" y="121.0762">(procurement)</text><ellipse cx="537" cy="79.9688" fill="#FEFECE" rx="12" ry="12" style="stroke:#A80036;stroke-width:2.0;"/><polygon fill="#A80036" points="533,67.9688,539,62.9688,537,67.9688,539,72.9688,533,67.9688" style="stroke:#A80036;stroke-width:1.0;"/><text fill="#000000" font-family="Arial" font-size="12" lengthAdjust="spacing" textLength="113" x="477.5" y="721.3887">Reabastecimiento</text><text fill="#000000" font-family="Arial" font-size="12" lengthAdjust="spacing" textLength="91" x="488.5" y="735.3574">(procurement)</text><ellipse cx="537" cy="754.1875" fill="#FEFECE" rx="12" ry="12" style="stroke:#A80036;stroke-width:2.0;"/><polygon fill="#A80036" points="533,742.1875,539,737.1875,537,742.1875,539,747.1875,533,742.1875" style="stroke:#A80036;stroke-width:1.0;"/><text fill="#000000" font-family="Arial" font-size="12" lengthAdjust="spacing" textLength="82" x="606.5" y="121.0762">stock.picking</text><ellipse cx="650.5" cy="93.9375" fill="#FEFECE" rx="12" ry="12" style="stroke:#A80036;stroke-width:2.0;"/><line style="stroke:#A80036;stroke-width:2.0;" x1="638.5" x2="662.5" y1="107.9375" y2="107.9375"/><text fill="#000000" font-family="Arial" font-size="12" lengthAdjust="spacing" textLength="82" x="606.5" y="721.3887">stock.picking</text><ellipse cx="650.5" cy="740.2188" fill="#FEFECE" rx="12" ry="12" style="stroke:#A80036;stroke-width:2.0;"/><line style="stroke:#A80036;stroke-width:2.0;" x1="638.5" x2="662.5" y1="754.2188" y2="754.2188"/><text fill="#000000" font-family="Arial" font-size="12" lengthAdjust="spacing" textLength="97" x="704.5" y="107.1074">stock.move.line</text><text fill="#000000" font-family="Arial" font-size="12" lengthAdjust="spacing" textLength="64" x="721" y="121.0762">(reservas)</text><ellipse cx="756" cy="79.9688" fill="#FEFECE" rx="12" ry="12" style="stroke:#A80036;stroke-width:2.0;"/><line style="stroke:#A80036;stroke-width:2.0;" x1="744" x2="768" y1="93.9688" y2="93.9688"/><text fill="#000000" font-family="Arial" font-size="12" lengthAdjust="spacing" textLength="97" x="704.5" y="721.3887">stock.move.line</text><text fill="#000000" font-family="Arial" font-size="12" lengthAdjust="spacing" textLength="64" x="721" y="735.3574">(reservas)</text><ellipse cx="756" cy="754.1875" fill="#FEFECE" rx="12" ry="12" style="stroke:#A80036;stroke-width:2.0;"/><line style="stroke:#A80036;stroke-width:2.0;" x1="744" x2="768" y1="768.1875" y2="768.1875"/><text fill="#000000" font-family="Arial" font-size="12" lengthAdjust="spacing" textLength="177" x="817.5" y="121.0762">stock.warehouse.orderpoint</text><ellipse cx="909" cy="93.9375" fill="#FEFECE" rx="12" ry="12" style="stroke:#A80036;stroke-width:2.0;"/><line style="stroke:#A80036;stroke-width:2.0;" x1="897" x2="921" y1="107.9375" y2="107.9375"/><text fill="#000000" font-family="Arial" font-size="12" lengthAdjust="spacing" textLength="177" x="817.5" y="721.3887">stock.warehouse.orderpoint</text><ellipse cx="909" cy="740.2188" fill="#FEFECE" rx="12" ry="12" style="stroke:#A80036;stroke-width:2.0;"/><line style="stroke:#A80036;stroke-width:2.0;" x1="897" x2="921" y1="754.2188" y2="754.2188"/><text fill="#000000" font-family="Arial" font-size="12" lengthAdjust="spacing" textLength="97" x="1010.5" y="107.1074">purchase.order</text><text fill="#000000" font-family="Arial" font-size="12" lengthAdjust="spacing" textLength="36" x="1041" y="121.0762">(MTO)</text><ellipse cx="1062" cy="79.9688" fill="#FEFECE" rx="12" ry="12" style="stroke:#A80036;stroke-width:2.0;"/><line style="stroke:#A80036;stroke-width:2.0;" x1="1050" x2="1074" y1="93.9688" y2="93.9688"/><text fill="#000000" font-family="Arial" font-size="12" lengthAdjust="spacing" textLength="97" x="1010.5" y="721.3887">purchase.order</text><text fill="#000000" font-family="Arial" font-size="12" lengthAdjust="spacing" textLength="36" x="1041" y="735.3574">(MTO)</text><ellipse cx="1062" cy="754.1875" fill="#FEFECE" rx="12" ry="12" style="stroke:#A80036;stroke-width:2.0;"/><line style="stroke:#A80036;stroke-width:2.0;" x1="1050" x2="1074" y1="768.1875" y2="768.1875"/><polygon fill="#A80036" points="184,149.875,194,153.875,184,157.875,188,153.875" style="stroke:#A80036;stroke-width:1.0;"/><line style="stroke:#A80036;stroke-width:1.0;stroke-dasharray:2.0,2.0;" x1="61" x2="190" y1="153.875" y2="153.875"/><text fill="#000000" font-family="Arial" font-size="12" lengthAdjust="spacing" textLength="111" x="68" y="149.0449">1. Trigger reserva</text><polygon fill="#A80036" points="638.5,177.8438,648.5,181.8438,638.5,185.8438,642.5,181.8438" style="stroke:#A80036;stroke-width:1.0;"/><line style="stroke:#A80036;stroke-width:1.0;stroke-dasharray:2.0,2.0;" x1="196" x2="644.5" y1="181.8438" y2="181.8438"/><text fill="#000000" font-family="Arial" font-size="12" lengthAdjust="spacing" textLength="86" x="203" y="177.0137">2. Lee picking</text><polygon fill="#A80036" points="325,205.8125,335,209.8125,325,213.8125,329,209.8125" style="stroke:#A80036;stroke-width:1.0;"/><line style="stroke:#A80036;stroke-width:1.0;stroke-dasharray:2.0,2.0;" x1="196" x2="331" y1="209.8125" y2="209.8125"/><text fill="#000000" font-family="Arial" font-size="12" lengthAdjust="spacing" textLength="112" x="203" y="204.9824">3. action_assign()</text><polygon fill="#A80036" points="638.5,233.7813,648.5,237.7813,638.5,241.7813,642.5,237.7813" style="stroke:#A80036;stroke-width:1.0;"/><line style="stroke:#A80036;stroke-width:1.0;stroke-dasharray:2.0,2.0;" x1="337" x2="644.5" y1="237.7813" y2="237.7813"/><text fill="#000000" font-family="Arial" font-size="12" lengthAdjust="spacing" textLength="106" x="344" y="232.9512">4. Recorre lineas</text><polygon fill="#A80036" points="744,261.75,754,265.75,744,269.75,748,265.75" style="stroke:#A80036;stroke-width:1.0;"/><line style="stroke:#A80036;stroke-width:1.0;stroke-dasharray:2.0,2.0;" x1="337" x2="750" y1="265.75" y2="265.75"/><text fill="#000000" font-family="Arial" font-size="12" lengthAdjust="spacing" textLength="160" x="344" y="260.9199">5. Busca stock disponible</text><polygon fill="#A80036" points="348,289.7188,338,293.7188,348,297.7188,344,293.7188" style="stroke:#A80036;stroke-width:1.0;"/><line style="stroke:#A80036;stroke-width:1.0;stroke-dasharray:2.0,2.0;" x1="342" x2="755" y1="293.7188" y2="293.7188"/><text fill="#000000" font-family="Arial" font-size="12" lengthAdjust="spacing" textLength="140" x="354" y="288.8887">6. Cantidad disponible</text><path d="M276,308.7188 L340,308.7188 L340,313.7188 L330,323.7188 L276,323.7188 L276,308.7188 " fill="#EEEEEE" style="stroke:#000000;stroke-width:1.0;"/><rect fill="none" height="255.6875" style="stroke:#000000;stroke-width:2.0;" width="847.5" x="276" y="308.7188"/><text fill="#000000" font-family="Arial" font-size="12" font-weight="bold" lengthAdjust="spacing" textLength="19" x="291" y="320.8574">alt</text><text fill="#000000" font-family="Arial" font-size="12" font-weight="bold" lengthAdjust="spacing" textLength="95" x="355" y="321.8574">[Si hay stock]</text><polygon fill="#A80036" points="744,340.6563,754,344.6563,744,348.6563,748,344.6563" style="stroke:#A80036;stroke-width:1.0;"/><line style="stroke:#A80036;stroke-width:1.0;stroke-dasharray:2.0,2.0;" x1="337" x2="750" y1="344.6563" y2="344.6563"/><text fill="#000000" font-family="Arial" font-size="12" lengthAdjust="spacing" textLength="133" x="344" y="339.8262">7a. Reserva cantidad</text><polygon fill="#A80036" points="348,368.625,338,372.625,348,376.625,344,372.625" style="stroke:#A80036;stroke-width:1.0;"/><line style="stroke:#A80036;stroke-width:1.0;stroke-dasharray:2.0,2.0;" x1="342" x2="755" y1="372.625" y2="372.625"/><text fill="#000000" font-family="Arial" font-size="12" lengthAdjust="spacing" textLength="149" x="354" y="367.7949">8a. reserved_availability</text><line style="stroke:#000000;stroke-width:1.0;stroke-dasharray:2.0,2.0;" x1="276" x2="1123.5" y1="381.625" y2="381.625"/><text fill="#000000" font-family="Arial" font-size="12" font-weight="bold" lengthAdjust="spacing" textLength="117" x="281" y="392.7637">[Si no hay stock]</text><polygon fill="#A80036" points="525,412.5625,535,416.5625,525,420.5625,529,416.5625" style="stroke:#A80036;stroke-width:1.0;"/><line style="stroke:#A80036;stroke-width:1.0;stroke-dasharray:2.0,2.0;" x1="337" x2="531" y1="416.5625" y2="416.5625"/><text fill="#000000" font-family="Arial" font-size="12" lengthAdjust="spacing" textLength="176" x="344" y="411.7324">7b. Busca reabastecimiento</text><polygon fill="#A80036" points="897,440.5313,907,444.5313,897,448.5313,901,444.5313" style="stroke:#A80036;stroke-width:1.0;"/><line style="stroke:#A80036;stroke-width:1.0;stroke-dasharray:2.0,2.0;" x1="537" x2="903" y1="444.5313" y2="444.5313"/><text fill="#000000" font-family="Arial" font-size="12" lengthAdjust="spacing" textLength="122" x="544" y="439.7012">8b. Consulta reglas</text><polygon fill="#A80036" points="548,468.5,538,472.5,548,476.5,544,472.5" style="stroke:#A80036;stroke-width:1.0;"/><line style="stroke:#A80036;stroke-width:1.0;stroke-dasharray:2.0,2.0;" x1="542" x2="908" y1="472.5" y2="472.5"/><text fill="#000000" font-family="Arial" font-size="12" lengthAdjust="spacing" textLength="164" x="554" y="467.6699">9b. orderpoints aplicables</text><polygon fill="#A80036" points="1050,496.4688,1060,500.4688,1050,504.4688,1054,500.4688" style="stroke:#A80036;stroke-width:1.0;"/><line style="stroke:#A80036;stroke-width:1.0;stroke-dasharray:2.0,2.0;" x1="537" x2="1056" y1="500.4688" y2="500.4688"/><text fill="#000000" font-family="Arial" font-size="12" lengthAdjust="spacing" textLength="202" x="544" y="495.6387">10b. Crea purchase order (MTO)</text><polygon fill="#A80036" points="548,524.4375,538,528.4375,548,532.4375,544,528.4375" style="stroke:#A80036;stroke-width:1.0;"/><line style="stroke:#A80036;stroke-width:1.0;stroke-dasharray:2.0,2.0;" x1="542" x2="1061" y1="528.4375" y2="528.4375"/><text fill="#000000" font-family="Arial" font-size="12" lengthAdjust="spacing" textLength="97" x="554" y="523.6074">11b. PO creado</text><polygon fill="#A80036" points="348,552.4063,338,556.4063,348,560.4063,344,556.4063" style="stroke:#A80036;stroke-width:1.0;"/><line style="stroke:#A80036;stroke-width:1.0;stroke-dasharray:2.0,2.0;" x1="342" x2="536" y1="556.4063" y2="556.4063"/><text fill="#000000" font-family="Arial" font-size="12" lengthAdjust="spacing" textLength="109" x="354" y="551.5762">12b. Programado</text><polygon fill="#A80036" points="638.5,587.375,648.5,591.375,638.5,595.375,642.5,591.375" style="stroke:#A80036;stroke-width:1.0;"/><line style="stroke:#A80036;stroke-width:1.0;stroke-dasharray:2.0,2.0;" x1="337" x2="644.5" y1="591.375" y2="591.375"/><text fill="#000000" font-family="Arial" font-size="12" lengthAdjust="spacing" textLength="127" x="344" y="586.5449">13. Actualiza estado</text><path d="M10,606.375 L74,606.375 L74,611.375 L64,621.375 L10,621.375 L10,606.375 " fill="#EEEEEE" style="stroke:#000000;stroke-width:1.0;"/><rect fill="none" height="87.875" style="stroke:#000000;stroke-width:2.0;" width="694.5" x="10" y="606.375"/><text fill="#000000" font-family="Arial" font-size="12" font-weight="bold" lengthAdjust="spacing" textLength="19" x="25" y="618.5137">alt</text><text fill="#000000" font-family="Arial" font-size="12" font-weight="bold" lengthAdjust="spacing" textLength="248" x="89" y="619.5137">[Si todas las lineas tienen reserva]</text><polygon fill="#A80036" points="72,638.3125,62,642.3125,72,646.3125,68,642.3125" style="stroke:#A80036;stroke-width:1.0;"/><line style="stroke:#A80036;stroke-width:1.0;stroke-dasharray:2.0,2.0;" x1="66" x2="649.5" y1="642.3125" y2="642.3125"/><text fill="#000000" font-family="Arial" font-size="12" lengthAdjust="spacing" textLength="157" x="78" y="637.4824">14a. Estado = 'assigned'</text><line style="stroke:#000000;stroke-width:1.0;stroke-dasharray:2.0,2.0;" x1="10" x2="704.5" y1="651.3125" y2="651.3125"/><text fill="#000000" font-family="Arial" font-size="12" font-weight="bold" lengthAdjust="spacing" textLength="105" x="15" y="662.4512">[Si hay parcial]</text><polygon fill="#A80036" points="72,682.25,62,686.25,72,690.25,68,686.25" style="stroke:#A80036;stroke-width:1.0;"/><line style="stroke:#A80036;stroke-width:1.0;stroke-dasharray:2.0,2.0;" x1="66" x2="649.5" y1="686.25" y2="686.25"/><text fill="#000000" font-family="Arial" font-size="12" lengthAdjust="spacing" textLength="210" x="78" y="681.4199">14b. Estado = 'partially_available'</text><rect fill="#DDDDDD" height="65.875" rx="5" ry="5" style="stroke:#000000;stroke-width:1.0;" width="264" x="860.5" y="810.1875"/><text fill="#000000" font-family="Arial" font-size="12" lengthAdjust="spacing" textLength="144" x="866.5" y="826.3262">Proyecto: SAP-TFI-2026</text><text fill="#000000" font-family="Arial" font-size="12" lengthAdjust="spacing" textLength="120" x="866.5" y="840.2949">Agente: saptfi2026</text><text fill="#000000" font-family="Arial" font-size="12" lengthAdjust="spacing" textLength="124" x="866.5" y="854.2637">Metodologia: ICONIX</text><text fill="#000000" font-family="Arial" font-size="12" lengthAdjust="spacing" textLength="252" x="866.5" y="868.2324">Fuente: Ingenieria inversa de Odoo 19.0</text><!--MD5=[3b32a841198c82890dee4eb6d403e7f2]
@startuml D-ROB-ENT-002 — Diagrama de Robustez: Reservar Productos

title SAP-TFI-2026 — Diagrama de Robustez - Reservar Productos (CU-ENT-002)

skinparam shadowing false
skinparam handwritten false
skinparam defaultFontName Arial
skinparam defaultFontSize 12
skinparam linetype ortho
skinparam backgroundColor white

actor "Sistema\n(o Operario)" as A

boundary "Trigger\n(action_confirm o boton)" as B_Trig

control "StockPicking\n(action_assign)" as C_Assign
control "Reabastecimiento\n(procurement)" as C_Proc

entity "stock.picking" as E_Pick
entity "stock.move.line\n(reservas)" as E_ML
entity "stock.warehouse.orderpoint" as E_WO
entity "purchase.order\n(MTO)" as E_PO

A - -> B_Trig : 1. Trigger reserva
B_Trig - -> E_Pick : 2. Lee picking
B_Trig - -> C_Assign : 3. action_assign()

C_Assign - -> E_Pick : 4. Recorre lineas
C_Assign - -> E_ML : 5. Busca stock disponible
E_ML - -> C_Assign : 6. Cantidad disponible

alt Si hay stock
    C_Assign - -> E_ML : 7a. Reserva cantidad
    E_ML - -> C_Assign : 8a. reserved_availability
else Si no hay stock
    C_Assign - -> C_Proc : 7b. Busca reabastecimiento
    C_Proc - -> E_WO : 8b. Consulta reglas
    E_WO - -> C_Proc : 9b. orderpoints aplicables
    C_Proc - -> E_PO : 10b. Crea purchase order (MTO)
    E_PO - -> C_Proc : 11b. PO creado
    C_Proc - -> C_Assign : 12b. Programado
end

C_Assign - -> E_Pick : 13. Actualiza estado
alt Si todas las lineas tienen reserva
    E_Pick - -> A : 14a. Estado = 'assigned'
else Si hay parcial
    E_Pick - -> A : 14b. Estado = 'partially_available'
end

legend right
Proyecto: SAP-TFI-2026
Agente: saptfi2026
Metodologia: ICONIX
Fuente: Ingenieria inversa de Odoo 19.0
endlegend

@enduml

PlantUML version 1.2021.16(Wed Dec 08 14:25:22 ART 2021)
(GPL source distribution)
Java Runtime: OpenJDK Runtime Environment
JVM: OpenJDK 64-Bit Server VM
Default Encoding: UTF-8
Language: es
Country: AR
--></g></svg>