<?xml version="1.0" encoding="UTF-8" standalone="no"?><svg xmlns="http://www.w3.org/2000/svg" xmlns:xlink="http://www.w3.org/1999/xlink" contentScriptType="application/ecmascript" contentStyleType="text/css" height="1035px" preserveAspectRatio="none" style="width:1100px;height:1035px;background:#FFFFFF;" version="1.1" viewBox="0 0 1100 1035" width="1100px" zoomAndPan="magnify"><defs/><g><text fill="#000000" font-family="Arial" font-size="12" lengthAdjust="spacing" textLength="472" x="310.5" y="23.1387">SAP-TFI-2026 — Diagrama de Secuencia - Reservar Productos (CU-ENT-002)</text><rect fill="#FFFFFF" height="719.1875" style="stroke:#A80036;stroke-width:1.0;" width="10" x="282" y="139.9063"/><rect fill="#FFFFFF" height="447.5" style="stroke:#A80036;stroke-width:1.0;" width="10" x="537" y="246.7813"/><rect fill="#FFFFFF" height="111.875" style="stroke:#A80036;stroke-width:1.0;" width="10" x="764" y="532.4375"/><rect fill="#FFFFFF" height="483.4375" style="stroke:#000000;stroke-width:2.0;" width="871" x="212" y="210.8438"/><rect fill="#FFFFFF" height="369.5625" style="stroke:#000000;stroke-width:2.0;" width="851" x="222" y="317.7188"/><rect fill="#FFFFFF" height="269.6875" style="stroke:none;stroke-width:1.0;" width="851" x="222" y="417.5938"/><rect fill="#FFFFFF" height="155.8125" style="stroke:#000000;stroke-width:2.0;" width="586" x="477" y="496.5"/><rect fill="#FFFFFF" height="87.875" style="stroke:#000000;stroke-width:2.0;" width="342" x="10" y="764.2188"/><rect fill="#FFFFFF" height="43.9375" style="stroke:none;stroke-width:1.0;" width="342" x="10" y="808.1563"/><line style="stroke:#A80036;stroke-width:1.0;stroke-dasharray:5.0,5.0;" x1="48" x2="48" y1="109.9375" y2="869.0938"/><line style="stroke:#A80036;stroke-width:1.0;stroke-dasharray:5.0,5.0;" x1="287" x2="287" y1="109.9375" y2="869.0938"/><line style="stroke:#A80036;stroke-width:1.0;stroke-dasharray:5.0,5.0;" x1="542" x2="542" y1="109.9375" y2="869.0938"/><line style="stroke:#A80036;stroke-width:1.0;stroke-dasharray:5.0,5.0;" x1="768.5" x2="768.5" y1="109.9375" y2="869.0938"/><line style="stroke:#A80036;stroke-width:1.0;stroke-dasharray:5.0,5.0;" x1="1014" x2="1014" y1="109.9375" y2="869.0938"/><text fill="#000000" font-family="Arial" font-size="12" lengthAdjust="spacing" textLength="50" x="20" y="107.1074">Sistema</text><ellipse cx="48" cy="42.9688" fill="#FEFECE" rx="8" ry="8" style="stroke:#A80036;stroke-width:2.0;"/><path d="M48,50.9688 L48,77.9688 M35,58.9688 L61,58.9688 M48,77.9688 L35,92.9688 M48,77.9688 L61,92.9688 " fill="none" style="stroke:#A80036;stroke-width:2.0;"/><text fill="#000000" font-family="Arial" font-size="12" lengthAdjust="spacing" textLength="50" x="20" y="879.2324">Sistema</text><ellipse cx="48" cy="892.0625" fill="#FEFECE" rx="8" ry="8" style="stroke:#A80036;stroke-width:2.0;"/><path d="M48,900.0625 L48,927.0625 M35,908.0625 L61,908.0625 M48,927.0625 L35,942.0625 M48,927.0625 L61,942.0625 " fill="none" style="stroke:#A80036;stroke-width:2.0;"/><rect fill="#FEFECE" height="41.9375" style="stroke:#A80036;stroke-width:1.5;" width="110" x="232" y="67"/><text fill="#000000" font-family="Arial" font-size="12" lengthAdjust="spacing" textLength="79" x="247.5" y="85.1387">StockPicking</text><text fill="#000000" font-family="Arial" font-size="12" lengthAdjust="spacing" textLength="96" x="239" y="99.1074">(action_assign)</text><rect fill="#FEFECE" height="41.9375" style="stroke:#A80036;stroke-width:1.5;" width="110" x="232" y="868.0938"/><text fill="#000000" font-family="Arial" font-size="12" lengthAdjust="spacing" textLength="79" x="247.5" y="886.2324">StockPicking</text><text fill="#000000" font-family="Arial" font-size="12" lengthAdjust="spacing" textLength="96" x="239" y="900.2012">(action_assign)</text><rect fill="#FEFECE" height="41.9375" style="stroke:#A80036;stroke-width:1.5;" width="110" x="487" y="67"/><text fill="#000000" font-family="Arial" font-size="12" lengthAdjust="spacing" textLength="67" x="508.5" y="85.1387">StockMove</text><text fill="#000000" font-family="Arial" font-size="12" lengthAdjust="spacing" textLength="96" x="494" y="99.1074">(action_assign)</text><rect fill="#FEFECE" height="41.9375" style="stroke:#A80036;stroke-width:1.5;" width="110" x="487" y="868.0938"/><text fill="#000000" font-family="Arial" font-size="12" lengthAdjust="spacing" textLength="67" x="508.5" y="886.2324">StockMove</text><text fill="#000000" font-family="Arial" font-size="12" lengthAdjust="spacing" textLength="96" x="494" y="900.2012">(action_assign)</text><rect fill="#FEFECE" height="41.9375" style="stroke:#A80036;stroke-width:1.5;" width="95" x="721.5" y="67"/><text fill="#000000" font-family="Arial" font-size="12" lengthAdjust="spacing" textLength="81" x="728.5" y="85.1387">Procurement</text><text fill="#000000" font-family="Arial" font-size="12" lengthAdjust="spacing" textLength="35" x="751.5" y="99.1074">Order</text><rect fill="#FEFECE" height="41.9375" style="stroke:#A80036;stroke-width:1.5;" width="95" x="721.5" y="868.0938"/><text fill="#000000" font-family="Arial" font-size="12" lengthAdjust="spacing" textLength="81" x="728.5" y="886.2324">Procurement</text><text fill="#000000" font-family="Arial" font-size="12" lengthAdjust="spacing" textLength="35" x="751.5" y="900.2012">Order</text><text fill="#000000" font-family="Arial" font-size="12" lengthAdjust="spacing" textLength="72" x="975" y="107.1074">PostgreSQL</text><path d="M996,59.9688 C996,49.9688 1014,49.9688 1014,49.9688 C1014,49.9688 1032,49.9688 1032,59.9688 L1032,85.9688 C1032,95.9688 1014,95.9688 1014,95.9688 C1014,95.9688 996,95.9688 996,85.9688 L996,59.9688 " fill="#FEFECE" style="stroke:#000000;stroke-width:1.5;"/><path d="M996,59.9688 C996,69.9688 1014,69.9688 1014,69.9688 C1014,69.9688 1032,69.9688 1032,59.9688 " fill="none" style="stroke:#000000;stroke-width:1.5;"/><text fill="#000000" font-family="Arial" font-size="12" lengthAdjust="spacing" textLength="72" x="975" y="879.2324">PostgreSQL</text><path d="M996,892.0625 C996,882.0625 1014,882.0625 1014,882.0625 C1014,882.0625 1032,882.0625 1032,892.0625 L1032,918.0625 C1032,928.0625 1014,928.0625 1014,928.0625 C1014,928.0625 996,928.0625 996,918.0625 L996,892.0625 " fill="#FEFECE" style="stroke:#000000;stroke-width:1.5;"/><path d="M996,892.0625 C996,902.0625 1014,902.0625 1014,902.0625 C1014,902.0625 1032,902.0625 1032,892.0625 " fill="none" style="stroke:#000000;stroke-width:1.5;"/><rect fill="#FFFFFF" height="719.1875" style="stroke:#A80036;stroke-width:1.0;" width="10" x="282" y="139.9063"/><rect fill="#FFFFFF" height="447.5" style="stroke:#A80036;stroke-width:1.0;" width="10" x="537" y="246.7813"/><rect fill="#FFFFFF" height="111.875" style="stroke:#A80036;stroke-width:1.0;" width="10" x="764" y="532.4375"/><polygon fill="#A80036" points="270,135.9063,280,139.9063,270,143.9063,274,139.9063" style="stroke:#A80036;stroke-width:1.0;"/><line style="stroke:#A80036;stroke-width:1.0;" x1="48" x2="276" y1="139.9063" y2="139.9063"/><text fill="#000000" font-family="Arial" font-size="12" lengthAdjust="spacing" textLength="112" x="55" y="135.0762">1. action_assign()</text><polygon fill="#A80036" points="1002,163.875,1012,167.875,1002,171.875,1006,167.875" style="stroke:#A80036;stroke-width:1.0;"/><line style="stroke:#A80036;stroke-width:1.0;" x1="292" x2="1008" y1="167.875" y2="167.875"/><text fill="#000000" font-family="Arial" font-size="12" lengthAdjust="spacing" textLength="156" x="299" y="163.0449">2. SELECT picking + lines</text><polygon fill="#A80036" points="303,191.8438,293,195.8438,303,199.8438,299,195.8438" style="stroke:#A80036;stroke-width:1.0;"/><line style="stroke:#A80036;stroke-width:1.0;stroke-dasharray:2.0,2.0;" x1="297" x2="1013" y1="195.8438" y2="195.8438"/><text fill="#000000" font-family="Arial" font-size="12" lengthAdjust="spacing" textLength="125" x="309" y="191.0137">3. picking, move_ids</text><path d="M212,210.8438 L288,210.8438 L288,215.8438 L278,225.8438 L212,225.8438 L212,210.8438 " fill="#EEEEEE" style="stroke:#000000;stroke-width:1.0;"/><rect fill="none" height="483.4375" style="stroke:#000000;stroke-width:2.0;" width="871" x="212" y="210.8438"/><text fill="#000000" font-family="Arial" font-size="12" font-weight="bold" lengthAdjust="spacing" textLength="31" x="227" y="222.9824">loop</text><text fill="#000000" font-family="Arial" font-size="12" font-weight="bold" lengthAdjust="spacing" textLength="113" x="303" y="223.9824">[Por cada move]</text><polygon fill="#A80036" points="525,242.7813,535,246.7813,525,250.7813,529,246.7813" style="stroke:#A80036;stroke-width:1.0;"/><line style="stroke:#A80036;stroke-width:1.0;" x1="292" x2="531" y1="246.7813" y2="246.7813"/><text fill="#000000" font-family="Arial" font-size="12" lengthAdjust="spacing" textLength="171" x="299" y="241.9512">4. action_assign() por linea</text><polygon fill="#A80036" points="1002,270.75,1012,274.75,1002,278.75,1006,274.75" style="stroke:#A80036;stroke-width:1.0;"/><line style="stroke:#A80036;stroke-width:1.0;" x1="547" x2="1008" y1="274.75" y2="274.75"/><text fill="#000000" font-family="Arial" font-size="12" lengthAdjust="spacing" textLength="209" x="554" y="269.9199">5. SELECT stock.quant (available)</text><polygon fill="#A80036" points="558,298.7188,548,302.7188,558,306.7188,554,302.7188" style="stroke:#A80036;stroke-width:1.0;"/><line style="stroke:#A80036;stroke-width:1.0;stroke-dasharray:2.0,2.0;" x1="552" x2="1013" y1="302.7188" y2="302.7188"/><text fill="#000000" font-family="Arial" font-size="12" lengthAdjust="spacing" textLength="139" x="564" y="297.8887">6. cantidad disponible</text><path d="M222,317.7188 L286,317.7188 L286,322.7188 L276,332.7188 L222,332.7188 L222,317.7188 " fill="#EEEEEE" style="stroke:#000000;stroke-width:1.0;"/><rect fill="none" height="369.5625" style="stroke:#000000;stroke-width:2.0;" width="851" x="222" y="317.7188"/><text fill="#000000" font-family="Arial" font-size="12" font-weight="bold" lengthAdjust="spacing" textLength="19" x="237" y="329.8574">alt</text><text fill="#000000" font-family="Arial" font-size="12" font-weight="bold" lengthAdjust="spacing" textLength="172" x="301" y="330.8574">[Cantidad &gt;= requerida]</text><polygon fill="#A80036" points="1002,349.6563,1012,353.6563,1002,357.6563,1006,353.6563" style="stroke:#A80036;stroke-width:1.0;"/><line style="stroke:#A80036;stroke-width:1.0;" x1="547" x2="1008" y1="353.6563" y2="353.6563"/><text fill="#000000" font-family="Arial" font-size="12" lengthAdjust="spacing" textLength="237" x="554" y="348.8262">7a. INSERT stock.move.line (reserved)</text><polygon fill="#A80036" points="558,377.625,548,381.625,558,385.625,554,381.625" style="stroke:#A80036;stroke-width:1.0;"/><line style="stroke:#A80036;stroke-width:1.0;stroke-dasharray:2.0,2.0;" x1="552" x2="1013" y1="381.625" y2="381.625"/><text fill="#000000" font-family="Arial" font-size="12" lengthAdjust="spacing" textLength="40" x="564" y="376.7949">8a. OK</text><polygon fill="#A80036" points="303,405.5938,293,409.5938,303,413.5938,299,409.5938" style="stroke:#A80036;stroke-width:1.0;"/><line style="stroke:#A80036;stroke-width:1.0;stroke-dasharray:2.0,2.0;" x1="297" x2="536" y1="409.5938" y2="409.5938"/><text fill="#000000" font-family="Arial" font-size="12" lengthAdjust="spacing" textLength="123" x="309" y="404.7637">9a. Reserva exitosa</text><line style="stroke:#000000;stroke-width:1.0;stroke-dasharray:2.0,2.0;" x1="222" x2="1073" y1="418.5938" y2="418.5938"/><text fill="#000000" font-family="Arial" font-size="12" font-weight="bold" lengthAdjust="spacing" textLength="162" x="227" y="429.7324">[Cantidad &lt; requerida]</text><polygon fill="#A80036" points="1002,449.5313,1012,453.5313,1002,457.5313,1006,453.5313" style="stroke:#A80036;stroke-width:1.0;"/><line style="stroke:#A80036;stroke-width:1.0;" x1="547" x2="1008" y1="453.5313" y2="453.5313"/><text fill="#000000" font-family="Arial" font-size="12" lengthAdjust="spacing" textLength="279" x="554" y="448.7012">7b. SELECT orderpoint WHERE product_id=...</text><polygon fill="#A80036" points="558,477.5,548,481.5,558,485.5,554,481.5" style="stroke:#A80036;stroke-width:1.0;"/><line style="stroke:#A80036;stroke-width:1.0;stroke-dasharray:2.0,2.0;" x1="552" x2="1013" y1="481.5" y2="481.5"/><text fill="#000000" font-family="Arial" font-size="12" lengthAdjust="spacing" textLength="164" x="564" y="476.6699">8b. orderpoints aplicables</text><path d="M477,496.5 L546,496.5 L546,501.5 L536,511.5 L477,511.5 L477,496.5 " fill="#EEEEEE" style="stroke:#000000;stroke-width:1.0;"/><rect fill="none" height="155.8125" style="stroke:#000000;stroke-width:2.0;" width="586" x="477" y="496.5"/><text fill="#000000" font-family="Arial" font-size="12" font-weight="bold" lengthAdjust="spacing" textLength="24" x="492" y="508.6387">opt</text><text fill="#000000" font-family="Arial" font-size="12" font-weight="bold" lengthAdjust="spacing" textLength="168" x="561" y="509.6387">[Si hay orderpoint MTO]</text><polygon fill="#A80036" points="752,528.4375,762,532.4375,752,536.4375,756,532.4375" style="stroke:#A80036;stroke-width:1.0;"/><line style="stroke:#A80036;stroke-width:1.0;" x1="547" x2="758" y1="532.4375" y2="532.4375"/><text fill="#000000" font-family="Arial" font-size="12" lengthAdjust="spacing" textLength="198" x="554" y="527.6074">9b. procurement.order.create()</text><polygon fill="#A80036" points="1002,556.4063,1012,560.4063,1002,564.4063,1006,560.4063" style="stroke:#A80036;stroke-width:1.0;"/><line style="stroke:#A80036;stroke-width:1.0;" x1="774" x2="1008" y1="560.4063" y2="560.4063"/><text fill="#000000" font-family="Arial" font-size="12" lengthAdjust="spacing" textLength="198" x="781" y="555.5762">10b. INSERT procurement.order</text><polygon fill="#A80036" points="1002,584.375,1012,588.375,1002,592.375,1006,588.375" style="stroke:#A80036;stroke-width:1.0;"/><line style="stroke:#A80036;stroke-width:1.0;" x1="774" x2="1008" y1="588.375" y2="588.375"/><text fill="#000000" font-family="Arial" font-size="12" lengthAdjust="spacing" textLength="216" x="781" y="583.5449">11b. INSERT purchase.order (MTO)</text><polygon fill="#A80036" points="785,612.3438,775,616.3438,785,620.3438,781,616.3438" style="stroke:#A80036;stroke-width:1.0;"/><line style="stroke:#A80036;stroke-width:1.0;stroke-dasharray:2.0,2.0;" x1="779" x2="1013" y1="616.3438" y2="616.3438"/><text fill="#000000" font-family="Arial" font-size="12" lengthAdjust="spacing" textLength="48" x="791" y="611.5137">12b. OK</text><polygon fill="#A80036" points="558,640.3125,548,644.3125,558,648.3125,554,644.3125" style="stroke:#A80036;stroke-width:1.0;"/><line style="stroke:#A80036;stroke-width:1.0;stroke-dasharray:2.0,2.0;" x1="552" x2="768" y1="644.3125" y2="644.3125"/><text fill="#000000" font-family="Arial" font-size="12" lengthAdjust="spacing" textLength="130" x="564" y="639.4824">13b. PO programado</text><polygon fill="#A80036" points="303,675.2813,293,679.2813,303,683.2813,299,679.2813" style="stroke:#A80036;stroke-width:1.0;"/><line style="stroke:#A80036;stroke-width:1.0;stroke-dasharray:2.0,2.0;" x1="297" x2="536" y1="679.2813" y2="679.2813"/><text fill="#000000" font-family="Arial" font-size="12" lengthAdjust="spacing" textLength="221" x="309" y="674.4512">14b. Reserva parcial o programada</text><polygon fill="#A80036" points="1002,717.25,1012,721.25,1002,725.25,1006,721.25" style="stroke:#A80036;stroke-width:1.0;"/><line style="stroke:#A80036;stroke-width:1.0;" x1="292" x2="1008" y1="721.25" y2="721.25"/><text fill="#000000" font-family="Arial" font-size="12" lengthAdjust="spacing" textLength="245" x="299" y="716.4199">15. UPDATE stock.picking SET state=...</text><polygon fill="#A80036" points="303,745.2188,293,749.2188,303,753.2188,299,749.2188" style="stroke:#A80036;stroke-width:1.0;"/><line style="stroke:#A80036;stroke-width:1.0;stroke-dasharray:2.0,2.0;" x1="297" x2="1013" y1="749.2188" y2="749.2188"/><text fill="#000000" font-family="Arial" font-size="12" lengthAdjust="spacing" textLength="40" x="309" y="744.3887">16. OK</text><path d="M10,764.2188 L74,764.2188 L74,769.2188 L64,779.2188 L10,779.2188 L10,764.2188 " fill="#EEEEEE" style="stroke:#000000;stroke-width:1.0;"/><rect fill="none" height="87.875" style="stroke:#000000;stroke-width:2.0;" width="342" x="10" y="764.2188"/><text fill="#000000" font-family="Arial" font-size="12" font-weight="bold" lengthAdjust="spacing" textLength="19" x="25" y="776.3574">alt</text><text fill="#000000" font-family="Arial" font-size="12" font-weight="bold" lengthAdjust="spacing" textLength="224" x="89" y="777.3574">[Si todas las lineas reservadas]</text><polygon fill="#A80036" points="59,796.1563,49,800.1563,59,804.1563,55,800.1563" style="stroke:#A80036;stroke-width:1.0;"/><line style="stroke:#A80036;stroke-width:1.0;stroke-dasharray:2.0,2.0;" x1="53" x2="281" y1="800.1563" y2="800.1563"/><text fill="#000000" font-family="Arial" font-size="12" lengthAdjust="spacing" textLength="157" x="65" y="795.3262">17a. Estado = 'assigned'</text><line style="stroke:#000000;stroke-width:1.0;stroke-dasharray:2.0,2.0;" x1="10" x2="352" y1="809.1563" y2="809.1563"/><text fill="#000000" font-family="Arial" font-size="12" font-weight="bold" lengthAdjust="spacing" textLength="105" x="15" y="820.2949">[Si hay parcial]</text><polygon fill="#A80036" points="59,840.0938,49,844.0938,59,848.0938,55,844.0938" style="stroke:#A80036;stroke-width:1.0;"/><line style="stroke:#A80036;stroke-width:1.0;stroke-dasharray:2.0,2.0;" x1="53" x2="281" y1="844.0938" y2="844.0938"/><text fill="#000000" font-family="Arial" font-size="12" lengthAdjust="spacing" textLength="210" x="65" y="839.2637">17b. Estado = 'partially_available'</text><rect fill="#DDDDDD" height="65.875" rx="5" ry="5" style="stroke:#000000;stroke-width:1.0;" width="264" x="820" y="954.0625"/><text fill="#000000" font-family="Arial" font-size="12" lengthAdjust="spacing" textLength="144" x="826" y="970.2012">Proyecto: SAP-TFI-2026</text><text fill="#000000" font-family="Arial" font-size="12" lengthAdjust="spacing" textLength="120" x="826" y="984.1699">Agente: saptfi2026</text><text fill="#000000" font-family="Arial" font-size="12" lengthAdjust="spacing" textLength="124" x="826" y="998.1387">Metodologia: ICONIX</text><text fill="#000000" font-family="Arial" font-size="12" lengthAdjust="spacing" textLength="252" x="826" y="1012.1074">Fuente: Ingenieria inversa de Odoo 19.0</text><!--MD5=[fc1c7a37e167b39e67905399a3c83c14]
@startuml D-SEC-ENT-002 — Diagrama de Secuencia: Reservar Productos

title SAP-TFI-2026 — Diagrama de Secuencia - Reservar Productos (CU-ENT-002)

skinparam shadowing false
skinparam handwritten false
skinparam defaultFontName Arial
skinparam defaultFontSize 12
skinparam linetype ortho
skinparam backgroundColor white

actor "Sistema" as S
participant "StockPicking\n(action_assign)" as SP
participant "StockMove\n(action_assign)" as SM
participant "Procurement\nOrder" as PO
database "PostgreSQL" as DB

S -> SP : 1. action_assign()
activate SP

SP -> DB : 2. SELECT picking + lines
DB - -> SP : 3. picking, move_ids

loop Por cada move
    SP -> SM : 4. action_assign() por linea
    activate SM
    
    SM -> DB : 5. SELECT stock.quant (available)
    DB - -> SM : 6. cantidad disponible
    
    alt Cantidad >= requerida
        SM -> DB : 7a. INSERT stock.move.line (reserved)
        DB - -> SM : 8a. OK
        SM - -> SP : 9a. Reserva exitosa
    else Cantidad < requerida
        SM -> DB : 7b. SELECT orderpoint WHERE product_id=...
        DB - -> SM : 8b. orderpoints aplicables
        
        opt Si hay orderpoint MTO
            SM -> PO : 9b. procurement.order.create()
            activate PO
            PO -> DB : 10b. INSERT procurement.order
            PO -> DB : 11b. INSERT purchase.order (MTO)
            DB - -> PO : 12b. OK
            PO - -> SM : 13b. PO programado
            deactivate PO
        end
        
        SM - -> SP : 14b. Reserva parcial o programada
    end
    deactivate SM
end

SP -> DB : 15. UPDATE stock.picking SET state=...
DB - -> SP : 16. OK

alt Si todas las lineas reservadas
    SP - -> S : 17a. Estado = 'assigned'
else Si hay parcial
    SP - -> S : 17b. Estado = 'partially_available'
end
deactivate SP

legend right
Proyecto: SAP-TFI-2026
Agente: saptfi2026
Metodologia: ICONIX
Fuente: Ingenieria inversa de Odoo 19.0
endlegend

@enduml

PlantUML version 1.2021.16(Wed Dec 08 14:25:22 ART 2021)
(GPL source distribution)
Java Runtime: OpenJDK Runtime Environment
JVM: OpenJDK 64-Bit Server VM
Default Encoding: UTF-8
Language: es
Country: AR
--></g></svg>